<svg width="54" height="54" viewBox="0 0 54 54" fill="none" xmlns="http://www.w3.org/2000/svg">
<rect x="1.5" y="1.5" width="51" height="51" rx="25.5" stroke="white" stroke-width="3"/>
<path fill-rule="evenodd" clip-rule="evenodd" d="M16 25.0442C16 19.8797 20.201 15.6782 25.365 15.6782C30.5289 15.6782 34.73 19.8797 34.73 25.0442C34.73 30.2087 30.5289 34.4102 25.365 34.4102C20.201 34.4102 16 30.2087 16 25.0442ZM18.6757 25.0442C18.6757 28.7329 21.6768 31.7342 25.365 31.7342C29.0532 31.7342 32.0543 28.7329 32.0543 25.0442C32.0543 21.3556 29.0532 18.3542 25.365 18.3542C21.6768 18.3542 18.6757 21.3556 18.6757 25.0442ZM34.1451 31.0559L38.3828 35.0887C39.2054 35.8714 39.2054 37.1441 38.3828 37.9268C37.9715 38.3181 37.4318 38.5134 36.8914 38.5134C36.351 38.5134 35.8113 38.3181 35.4 37.9268L31.1617 33.8944C32.3333 33.1348 33.3467 32.1706 34.1451 31.0559Z" fill="white"/>
</svg>
